<svg width="50" height="49" viewBox="0 0 50 49" fill="none" xmlns="http://www.w3.org/2000/svg">
<path d="M24.2344 0H25.7355C31.8687 0 37.6792 2.543 43.1668 7.629C47.0243 12.1954 49.1467 16.3287 49.5341 20.0291C49.8246 21.7769 49.9699 22.887 49.9699 23.3594V25.367C49.9699 28.6107 48.8401 32.3662 46.5804 36.6334C43.2879 41.8926 38.5991 45.5457 32.5143 47.5927C29.4315 48.3642 27.0186 48.75 25.2755 48.75H24.6944C18.3191 48.75 12.4037 46.2464 6.94833 41.2391C2.31611 36.2318 0 30.4136 0 23.7845V23.5011C0 23.2806 0.0484204 23.0917 0.145261 22.9342C0.145261 22.824 0.0968409 22.7689 0 22.7689C0.629466 18.0765 1.91261 14.2817 3.84942 11.3844C6.91605 6.5189 11.6451 3.05475 18.0366 0.992006C20.4253 0.330669 22.4913 0 24.2344 0ZM20.845 15.565L20.9903 20.0291C20.9903 20.1708 20.845 20.3204 20.5545 20.4778H18.0366V25.5087H20.5545C20.6997 25.5087 20.845 25.6583 20.9903 25.9575V38.3576L21.0629 39.2315H26.3165V25.8158C26.3488 25.6111 26.4456 25.5087 26.607 25.5087H30.8922C31.0859 25.5087 31.3361 23.9262 31.6427 20.7613V20.4778H26.607C26.4133 20.4778 26.3165 20.3834 26.3165 20.1944V16.7224C26.3165 15.2422 27.2042 14.4234 28.9796 14.266H31.9333V9.94368C31.9333 9.66025 30.9003 9.51853 28.8344 9.51853H28.0838C24.6783 9.51853 22.459 10.7625 21.426 13.2504C21.2324 13.77 21.0387 14.5415 20.845 15.565Z" fill="#3E82FC"/>
</svg>
