<svg width="51" height="50" viewBox="0 0 51 50" fill="none" xmlns="http://www.w3.org/2000/svg">
<path d="M24.053 0H27.6137C31.4246 0 35.7603 1.57997 40.6209 4.73991C44.2864 7.60817 46.9428 10.9221 48.5899 14.6816C50.0755 18.2628 50.8183 21.285 50.8183 23.7482V25.8143C50.8183 31.3563 48.5495 36.8498 44.0119 42.2946C38.7477 47.4315 32.6357 50 25.6759 50C16.9883 50 9.89128 45.9407 4.38482 37.8221C2.02722 33.4468 0.848419 29.1444 0.848419 24.9149C0.848419 17.9468 3.70661 11.6675 9.42299 6.07681C14.7518 2.0256 19.6285 0 24.053 0ZM12.5234 21.6578V29.3875C12.5234 33.6007 13.8556 36.4123 16.52 37.8221C17.715 38.5027 21.5582 38.7538 28.0497 38.5756C33.0232 38.5756 35.8814 38.0327 36.6242 36.947C38.3036 35.602 39.1433 33.3738 39.1433 30.2625V20.3209C39.1433 16.3993 37.7627 13.8308 35.0014 12.6155L33.1605 12.0078L31.2954 11.8619H20.5166C16.6734 11.8619 14.1059 13.7417 12.8141 17.5012C12.6203 18.6518 12.5234 20.0373 12.5234 21.6578ZM20.9526 14.244H31.2954C35.0417 14.244 36.9149 16.221 36.9149 20.175V30.7001C36.4143 34.3623 34.8883 36.1935 32.337 36.1935H28.0497C26.0473 36.1935 23.9319 36.2421 21.7035 36.3393C17.9895 36.3393 15.8176 35.1564 15.1878 32.7905C14.994 31.4779 14.8972 29.5009 14.8972 26.8595V23.578C14.8972 18.6356 15.2928 16.1643 16.084 16.1643C16.8753 14.8841 18.4981 14.244 20.9526 14.244ZM31.4407 18.2547C31.8767 19.2432 32.4258 19.7375 33.0878 19.7375C33.7499 19.7375 34.2909 19.2432 34.7107 18.2547C34.4846 17.0556 33.8872 16.456 32.9183 16.456C31.9333 16.7639 31.4407 17.3635 31.4407 18.2547ZM19.0391 25.3768C19.0391 28.5691 20.8638 30.7892 24.5133 32.0369H27.4683C31.0047 30.7568 32.7729 28.4881 32.7729 25.2309V24.9149C32.7729 23.0676 31.8364 21.3418 29.9632 19.7375C28.6875 18.8462 27.3634 18.4006 25.9908 18.4006H25.8455C22.7935 18.4006 20.67 19.9806 19.4751 23.1405C19.3136 23.3512 19.1683 24.0966 19.0391 25.3768ZM25.8455 20.7584H25.9908C28.1223 20.7584 29.5514 21.9008 30.2781 24.1857C30.375 24.3153 30.4234 24.6637 30.4234 25.2309C29.9551 28.2936 28.4776 29.825 25.9908 29.825C24.0208 29.825 22.5917 28.8365 21.7035 26.8595C21.5743 26.6975 21.4694 26.2032 21.3886 25.3768C21.7439 22.2978 23.2295 20.7584 25.8455 20.7584Z" fill="#3E82FC"/>
</svg>
