<svg width="173" height="56" viewBox="0 0 173 56" fill="none" xmlns="http://www.w3.org/2000/svg">
<g filter="url(#filter0_d_464_10271)">
<path d="M118.788 28.8018C118.788 35.0122 123.439 40.0451 129.64 40.0451C132.209 40.0451 134.518 39.3299 136.408 38.0738V39.5915H143.062V18.012H136.373V19.4861C134.483 18.2737 132.175 17.5585 129.649 17.5585C123.439 17.5585 118.788 22.6001 118.788 28.8018ZM136.399 28.8018C136.399 31.8285 133.943 34.2883 130.92 34.2883C127.785 34.2883 125.442 31.9419 125.442 28.8018C125.442 25.6617 127.785 23.3153 130.92 23.3153C133.943 23.3153 136.399 25.7751 136.399 28.8018ZM109.381 12.639C109.381 14.7236 111.079 16.4245 113.161 16.4245C115.243 16.4245 116.941 14.7236 116.941 12.639C116.941 10.5543 115.243 8.85339 113.161 8.85339C111.079 8.85339 109.381 10.5543 109.381 12.639ZM116.584 17.3753H109.755V38.8152C109.755 40.6993 108.222 42.2345 106.341 42.2345H104.869V48H109.764C113.518 48 116.593 44.921 116.593 41.1616L116.584 17.3753Z" fill="#FE2C54"/>
<path d="M82.7635 28.8017C82.7635 35.0121 87.4145 40.045 93.616 40.045C96.1854 40.045 98.4935 39.3298 100.384 38.0737V39.5914H107.038V18.0119H100.349V19.486C98.4587 18.2736 96.1506 17.5583 93.6247 17.5583C87.4145 17.5583 82.7635 22.6 82.7635 28.8017ZM100.114 28.8017C100.114 31.8284 97.6574 34.2881 94.635 34.2881C91.4995 34.2881 89.1565 31.9418 89.1565 28.8017C89.1565 25.6616 91.4995 23.3152 94.635 23.3152C97.6486 23.3152 100.114 25.775 100.114 28.8017Z" fill="#FE2C54"/>
<path d="M34.8852 12.639C34.8852 14.7236 36.5837 16.4245 38.6653 16.4245C40.747 16.4245 42.4454 14.7236 42.4454 12.639C42.4454 10.5543 40.747 8.85339 38.6653 8.85339C36.5837 8.85339 34.8852 10.5543 34.8852 12.639ZM42.0709 17.637H35.2685V39.2165H42.0709V17.637ZM7.95429 12.639H14.7828V17.637H18.7371V22.9403H14.7828V30.1538C14.7828 32.0378 16.3158 33.573 18.1971 33.573H19.6778V39.3299H14.7915C11.0376 39.3299 7.963 36.2508 7.963 32.4914V22.9315H4V17.6282H7.95429V12.639ZM21.8727 39.2078H28.7012V27.8859C28.7012 26.0019 30.2342 24.4667 32.1155 24.4667H33.5875V17.6282H28.7012C24.9473 17.6282 21.8727 20.7073 21.8727 24.4667V29.36V39.2078Z" fill="#3E82FC"/>
<path d="M70.7003 39.2077H77.5288V26.813C77.5288 24.9289 79.0618 23.3938 80.9431 23.3938H82.4238V17.6282H77.5375C73.7836 17.6282 70.709 20.7072 70.709 24.4666L70.7003 39.2077Z" fill="#FE2C54"/>
<path d="M68.6796 28.8715C68.6796 22.6611 64.0285 17.6282 57.8271 17.6282C55.2577 17.6282 52.9495 18.3434 51.0595 19.5995V17.6282H44.4138V47.6074H51.2163V38.2656C53.0715 39.4781 55.336 40.1235 57.8358 40.1235C64.0285 40.1148 68.6796 35.0819 68.6796 28.8715ZM51.0682 28.8715C51.0682 25.8448 53.5244 23.385 56.5467 23.385C59.6823 23.385 62.0252 25.7314 62.0252 28.8715C62.0252 32.0116 59.6823 34.3579 56.5467 34.3579C53.5244 34.3667 51.0682 31.9069 51.0682 28.8715Z" fill="#3E82FC"/>
<path d="M146.52 21.4313L145.126 24.1527L143.167 25.7926L143.402 26.0717L145.396 24.4057L145.44 24.3533L146.851 21.597L146.52 21.4313Z" fill="#231F20"/>
<path d="M145.318 23.8038L142.67 24.8331L142.801 25.1732L145.448 24.144L145.318 23.8038ZM142.313 22.6001L140.919 25.3215L138.96 26.9614L139.195 27.2405L141.189 25.5745L141.233 25.5221L142.644 22.7658L142.313 22.6001Z" fill="#231F20"/>
<path d="M141.111 24.9727L138.463 26.0019L138.594 26.3421L141.242 25.3128L141.111 24.9727Z" fill="#231F20"/>
<path d="M130.955 28.9588L138.141 16.8433L142.086 17.8463L135.746 25.1296L130.955 28.9588Z" fill="#75A603"/>
<path d="M130.746 28.8367L137.941 16.7211L138.036 16.5641L138.211 16.6077L142.156 17.6108L142.539 17.7067L142.278 18.0033L135.937 25.2866L135.902 25.3128L131.112 29.142L130.746 28.8367ZM138.263 17.1223L131.852 27.9295L135.58 24.9464L141.642 17.9771L138.263 17.1223Z" fill="#231F20"/>
<path d="M131.548 7.62352L129.222 5.99241L131.391 4.5532L127.82 5.34695L124.675 2.58191C136.469 2.90464 139.839 1.02058 148.601 9.70821C143.262 5.34695 137.636 6.00986 131.548 7.62352Z" fill="#99D420"/>
<path d="M131.243 7.71072L129.083 6.193L128.786 5.98366L129.083 5.78304L130.145 5.07652L127.872 5.58242L127.75 5.60859L127.654 5.53009L124.51 2.76505L124.675 2.33765C126.748 2.38998 128.56 2.38126 130.18 2.37254C137.88 2.32892 141.468 2.30276 148.758 9.53372L148.828 9.682L149.141 13.1797L149.185 13.7205L148.75 13.4065L148.68 13.3542L148.898 13.2059L148.584 9.70817C148.114 9.32438 147.626 8.96676 147.121 8.64403C140.815 2.79994 137.27 2.82611 130.18 2.86972C128.734 2.87844 127.132 2.88717 125.329 2.85228L127.872 5.08524L131.321 4.31766L131.513 4.76251L129.64 6.0011L131.844 7.54499L131.243 7.71072Z" fill="#231F20"/>
<path d="M154.759 17.1485C146.468 22.696 145.405 22.6785 135.746 25.1383L142.086 17.855L148.915 13.2146L153.235 14.4881L154.759 17.1485Z" fill="#99DEF9"/>
<path d="M154.899 17.3491C147.199 22.4954 145.71 22.8705 137.871 24.8505L135.807 25.3738L135.563 24.9726L141.904 17.6893L141.956 17.6457L148.784 13.0053L148.88 12.9442L148.993 12.9791L153.314 14.2439L153.453 14.3573L154.977 17.0264L155.09 17.227L154.899 17.3491ZM137.758 24.3707C145.457 22.4256 146.981 22.0418 154.437 17.07L153.07 14.6887L148.959 13.4763L142.252 18.0295L136.442 24.7022L137.758 24.3707Z" fill="#231F20"/>
<path d="M138.141 16.8431L132.27 14.8631L133.699 12.1504L130.798 14.1391L128.961 13.232L130.276 10.9641L127.794 12.5255L121.636 10.371C131.669 8.05954 140.475 3.07026 148.601 9.71682L148.915 13.2145L142.086 17.8549L138.141 16.8431Z" fill="#75A603"/>
<path d="M138.062 17.0787L132.192 15.0987L131.922 15.0027L132.061 14.7498L133.028 12.9093L130.947 14.3398L130.825 14.4183L130.694 14.3573L128.856 13.4501L128.621 13.3367L128.752 13.11L129.57 11.7056L127.933 12.7349L127.828 12.7959L127.715 12.7611L121.557 10.6066L121.583 10.1356C123.682 9.65584 125.729 9.05399 127.724 8.46086C135.336 6.2279 142.235 4.19555 148.758 9.52501L148.837 9.58606L148.845 9.69073L149.159 13.1885L149.168 13.328L149.046 13.4065L142.217 18.0469L142.121 18.108L142.017 18.0818L138.071 17.0787H138.062ZM132.619 14.7236L138.202 16.6077L142.034 17.5846L148.654 13.0838L148.366 9.83902C142.06 4.75379 135.301 6.74253 127.855 8.93188C126.113 9.4465 124.327 9.96986 122.507 10.4147L127.767 12.2552L130.154 10.7549L130.494 11.0863L129.309 13.1274L130.781 13.8514L133.559 11.9411L133.917 12.2552L132.619 14.7236Z" fill="#231F20"/>
<path d="M148.61 9.71688C152.477 4.8846 153.793 4.15191 159.959 3.95129L159.236 9.39414C157.851 12.6564 157.52 14.9678 154.768 17.1485L153.244 14.4794L148.924 13.2146L148.61 9.71688Z" fill="#FFB800"/>
<path d="M148.419 9.55984C150.37 7.11753 151.693 5.70449 153.314 4.87585C154.934 4.04721 156.832 3.80298 159.95 3.70703H159.959H160.238L160.203 3.98615L159.48 9.429L159.463 9.49006C159.184 10.153 158.923 10.8333 158.67 11.505C157.808 13.7815 157.128 15.5958 154.925 17.3316L154.698 17.506L154.559 17.2618L153.078 14.68L148.854 13.4414L148.697 13.3977L148.68 13.232L148.366 9.73429L148.419 9.55984ZM153.531 5.31197C152.007 6.097 150.735 7.44899 148.863 9.78662L149.15 13.014L153.305 14.2351L153.444 14.3485L154.829 16.7646C156.745 15.1684 157.39 13.4588 158.2 11.3305C158.435 10.7025 158.688 10.0309 158.992 9.32433L159.68 4.20421C156.797 4.30888 155.029 4.54439 153.531 5.31197Z" fill="#231F20"/>
<path d="M156.632 5.05911C156.144 5.02422 155.726 5.38185 155.683 5.87031C155.648 6.35877 156.005 6.77745 156.493 6.82106C156.98 6.85595 157.398 6.49833 157.442 6.00987C157.477 5.52141 157.12 5.10272 156.632 5.05911Z" fill="#231F20"/>
<path d="M159.228 9.39417L168.826 0.226807L159.95 3.95132L159.228 9.39417Z" fill="#FF690A"/>
<path d="M159.567 8.73124L167.702 0.959477L160.186 4.11703L159.567 8.73124ZM169 0.401236L159.402 9.5686L158.992 9.35926L159.715 3.91641L159.733 3.77685L159.863 3.72451L168.73 0L169 0.401236Z" fill="#231F20"/>
</g>
<defs>
<filter id="filter0_d_464_10271" x="0" y="0" width="173" height="56" filterUnits="userSpaceOnUse" color-interpolation-filters="sRGB">
<feFlood flood-opacity="0" result="BackgroundImageFix"/>
<feColorMatrix in="SourceAlpha" type="matrix" values="0 0 0 0 0 0 0 0 0 0 0 0 0 0 0 0 0 0 127 0" result="hardAlpha"/>
<feOffset dy="4"/>
<feGaussianBlur stdDeviation="2"/>
<feComposite in2="hardAlpha" operator="out"/>
<feColorMatrix type="matrix" values="0 0 0 0 0 0 0 0 0 0 0 0 0 0 0 0 0 0 0.25 0"/>
<feBlend mode="normal" in2="BackgroundImageFix" result="effect1_dropShadow_464_10271"/>
<feBlend mode="normal" in="SourceGraphic" in2="effect1_dropShadow_464_10271" result="shape"/>
</filter>
</defs>
</svg>
