<svg width="49" height="50" viewBox="0 0 49 50" fill="none" xmlns="http://www.w3.org/2000/svg">
<path d="M23.9946 0H24.9894C30.4212 0 35.6636 2.12283 40.7164 6.3685C46.0851 11.9592 48.7694 17.8253 48.7694 23.9669V26.3491C48.7694 29.9141 47.4273 34.1031 44.7429 38.9159C41.427 43.7773 36.911 47.1317 31.1949 48.9791C28.5422 49.6597 26.3316 50 24.5631 50H24.421C17.8049 50 11.8914 47.3424 6.68068 42.0272C2.25942 36.8417 0.0487976 31.17 0.0487976 25.0122C0.0487976 18.433 2.55154 12.4129 7.55703 6.95187C12.7678 2.31729 18.247 0 23.9946 0ZM25.4394 20.7098V21.9008C25.4394 22.0953 25.3368 22.1925 25.1315 22.1925C22.1156 21.7712 19.526 20.6855 17.3627 18.9353L15.3495 17.0151H15.1837C15.1837 17.1771 14.9942 17.5741 14.6152 18.2061V19.9806C14.7416 20.9853 15.4127 22.1196 16.6285 23.3836V23.5294C15.9653 23.5294 15.2942 23.335 14.6152 22.946V23.0919C14.6152 24.9878 15.8153 26.6164 18.2154 27.9776L17.9312 28.1235H17.2206L16.4864 27.9776V28.2693C17.5917 30.3435 18.9891 31.3807 20.6787 31.3807V31.8182C18.7839 33.0011 16.9048 33.5926 15.0416 33.5926H14.1889V33.8843C16.9048 35.1645 19.2576 35.8046 21.2471 35.8046C25.4157 35.8046 28.9685 34.0788 31.9055 30.6271C34.0214 27.613 35.0793 24.7529 35.0793 22.0467V21.0258C36.611 19.5187 37.3847 18.6761 37.4005 18.4978V18.352C36.8478 18.6437 36.0741 18.8948 35.0793 19.1055L34.9372 18.7895C35.8373 18.2547 36.5083 17.5174 36.9505 16.5775V16.4317H36.8084C35.3872 17.1285 34.5267 17.4769 34.2267 17.4769H33.8003C32.7424 16.5856 31.7792 16.0914 30.9107 15.9942H29.7501C28.1395 15.9942 26.8448 16.9259 25.8658 18.7895C25.5815 19.2756 25.4394 19.9157 25.4394 20.7098Z" fill="#3E82FC"/>
</svg>
